<svg width="271" height="180" viewBox="0 0 271 180" fill="none" xmlns="http://www.w3.org/2000/svg">
<g clip-path="url(#clip0_1024_76)">
<path d="M97.2076 103.592C106.495 87.2633 124.21 74.7258 142.964 75.9336C129.131 90.9682 121.064 110.409 120.192 130.815C119.884 138.686 120.361 147.473 115.132 153.367C111.879 157.034 106.906 158.81 102.016 159.183C97.126 159.555 92.2372 158.672 87.4126 157.793L86.2423 158.152C85.7967 139.375 87.9204 119.92 97.2076 103.592Z" fill="#F0F0F0"/>
<path d="M142.992 76.3267C129.124 82.9991 117.299 94.1427 110.04 107.733C108.47 110.671 107.134 113.788 106.551 117.084C105.968 120.381 106.376 123.52 107.502 126.652C108.533 129.515 109.918 132.324 110.234 135.388C110.567 138.617 109.378 141.636 107.238 144.032C104.62 146.964 101.104 148.78 97.6043 150.438C93.7181 152.278 89.6524 154.127 86.8999 157.561C86.5664 157.977 85.9399 157.436 86.2729 157.02C91.0618 151.046 99.2592 149.923 104.944 145.11C107.596 142.864 109.588 139.805 109.462 136.222C109.352 133.088 107.926 130.19 106.858 127.3C105.736 124.266 105.177 121.215 105.579 117.98C105.99 114.671 107.207 111.495 108.695 108.529C112.049 101.841 116.64 95.7015 121.898 90.3939C127.942 84.2931 134.985 79.2705 142.723 75.5434C143.202 75.3129 143.468 76.0977 142.992 76.3267Z" fill="white"/>
<path d="M112.166 103.191C110.04 101.638 108.536 99.3791 107.922 96.8193C107.309 94.2596 107.625 91.5651 108.816 89.2171C109.058 88.7428 109.807 89.0972 109.564 89.5721C108.452 91.7565 108.157 94.2664 108.733 96.6489C109.31 99.0314 110.719 101.13 112.708 102.565C113.139 102.877 112.596 103.502 112.166 103.191Z" fill="white"/>
<path d="M106.789 125.269C112.116 124.491 116.955 121.735 120.339 117.55C120.674 117.135 121.3 117.676 120.966 118.091C117.436 122.439 112.395 125.297 106.85 126.095C106.321 126.17 106.263 125.344 106.789 125.269Z" fill="white"/>
<path d="M128.351 85.3118C129.048 86.0842 129.927 86.6715 130.907 87.0209C131.888 87.3703 132.94 87.4708 133.969 87.3134C134.496 87.2311 134.553 88.0572 134.029 88.1389C132.892 88.3075 131.73 88.1951 130.646 87.8115C129.562 87.4279 128.588 86.7848 127.81 85.9384C127.73 85.8648 127.681 85.7634 127.673 85.655C127.665 85.5466 127.699 85.4392 127.767 85.3546C127.839 85.272 127.941 85.2212 128.05 85.2132C128.16 85.2051 128.268 85.2406 128.351 85.3118Z" fill="white"/>
<path d="M180.277 127.443C179.949 127.504 179.622 127.565 179.291 127.632C174.887 128.472 170.559 129.667 166.35 131.207C166.022 131.321 165.692 131.442 165.369 131.565C155.266 135.383 145.961 141.043 137.925 148.256C134.73 151.13 131.759 154.242 129.037 157.566C125.277 162.157 121.566 167.433 116.654 170.426C116.145 170.744 115.616 171.031 115.072 171.283L86.7713 159.551C86.7204 159.492 86.6665 159.44 86.6153 159.381L85.4639 158.964C85.5923 158.782 85.7294 158.597 85.8578 158.416C85.9319 158.311 86.0122 158.208 86.0863 158.102C86.1377 158.033 86.1894 157.963 86.2318 157.898C86.2488 157.875 86.2661 157.852 86.2804 157.835C86.3228 157.769 86.3692 157.713 86.4089 157.654C87.1723 156.616 87.9444 155.582 88.7251 154.552C88.7278 154.546 88.7278 154.546 88.7368 154.542C94.7055 146.707 101.381 139.301 108.969 133.144C109.197 132.959 109.428 132.767 109.669 132.587C113.105 129.83 116.761 127.359 120.599 125.198C122.705 124.021 124.869 122.951 127.083 121.993C132.808 119.529 138.885 117.98 145.092 117.403C157.465 116.254 170.068 119.074 179.558 126.843C179.801 127.042 180.037 127.238 180.277 127.443Z" fill="#F0F0F0"/>
<path d="M180.065 127.776C164.973 124.759 148.818 126.541 134.835 133.024C131.812 134.426 128.868 136.11 126.417 138.391C123.965 140.673 122.4 143.424 121.413 146.603C120.511 149.508 119.925 152.585 118.331 155.221C116.652 158 113.884 159.695 110.732 160.321C106.876 161.086 102.974 160.421 99.1812 159.638C94.9699 158.769 90.6095 157.799 86.3431 158.885C85.8261 159.016 85.6521 158.207 86.1683 158.076C93.5911 156.187 100.813 160.223 108.251 159.8C111.722 159.603 115.154 158.36 117.212 155.423C119.012 152.855 119.619 149.682 120.507 146.732C121.44 143.635 122.831 140.862 125.101 138.521C127.423 136.126 130.308 134.323 133.282 132.85C139.989 129.529 147.353 127.389 154.749 126.315C163.249 125.081 171.899 125.309 180.322 126.989C180.844 127.094 180.583 127.88 180.065 127.776Z" fill="white"/>
<path d="M139.269 130.677C138.508 128.157 138.667 125.449 139.719 123.036C140.771 120.622 142.647 118.662 145.012 117.503C145.491 117.27 145.876 118.004 145.396 118.237C143.191 119.312 141.444 121.138 140.469 123.387C139.494 125.637 139.356 128.16 140.079 130.502C140.235 131.011 139.425 131.183 139.269 130.677Z" fill="white"/>
<path d="M121.676 145.069C126.399 147.653 131.922 148.364 137.145 147.059C137.662 146.93 137.836 147.739 137.32 147.868C131.882 149.216 126.136 148.465 121.227 145.765C120.76 145.507 121.211 144.813 121.676 145.069Z" fill="white"/>
<path d="M162.963 126.14C163.054 127.177 163.401 128.174 163.974 129.043C164.546 129.912 165.326 130.625 166.242 131.119C166.713 131.37 166.261 132.064 165.793 131.814C164.783 131.264 163.923 130.476 163.289 129.517C162.654 128.558 162.264 127.459 162.153 126.315C162.133 126.208 162.155 126.098 162.214 126.006C162.273 125.915 162.365 125.849 162.47 125.823C162.578 125.8 162.69 125.821 162.782 125.88C162.874 125.94 162.939 126.033 162.963 126.14Z" fill="white"/>
<path d="M126.367 146.799C122.403 127.646 117.449 121.26 117.449 121.26L115.556 119.793L113.28 118.026L113.291 117.799L112.751 117.616L112.625 117.517L112.417 117.358L112.383 117.394L112.313 117.467L102.013 113.968L88.9466 109.532L82.8959 101.671C81.9104 100.391 80.6417 99.3564 79.1892 98.6483C77.7367 97.9402 76.1398 97.5779 74.5238 97.5899L55.1998 97.7328C52.5869 97.7521 50.0758 98.7476 48.1601 100.524L35.4588 112.299L15.6675 121.746L15.6341 121.712L15.4263 121.861L12.3684 123.322L12.4946 123.978L10.6019 125.343C10.6019 125.343 5.64764 131.285 1.6842 149.107C0.675941 153.642 0.179641 163.37 0.000503414 175.357C-0.00849465 175.963 0.103212 176.565 0.329126 177.128C0.55504 177.691 0.890655 178.203 1.31646 178.635C1.74226 179.067 2.24975 179.41 2.80943 179.645C3.3691 179.879 3.96979 180 4.57658 180H110.285L123.479 180C124.085 180 124.686 179.879 125.245 179.645C125.804 179.411 126.312 179.068 126.737 178.637C127.163 178.205 127.499 177.693 127.725 177.131C127.951 176.569 128.063 175.967 128.055 175.361C127.88 162.318 127.384 151.717 126.367 146.799Z" fill="#3F3D56"/>
<path d="M139.93 16.7033C135.817 16.7033 131.873 18.3362 128.965 21.2427C126.057 24.1492 124.423 28.0913 124.423 32.2018C124.423 36.3122 126.057 40.2543 128.965 43.1608C131.873 46.0673 135.817 47.7002 139.93 47.7002H255.493C259.606 47.7002 263.55 46.0673 266.458 43.1608C269.366 40.2543 271 36.3122 271 32.2018C271 28.0913 269.366 24.1492 266.458 21.2427C263.55 18.3362 259.606 16.7033 255.493 16.7033H139.93Z" fill="#E5E5E5"/>
<path d="M139.93 19.8399C136.649 19.8399 133.503 21.1423 131.184 23.4606C128.864 25.7789 127.561 28.9232 127.561 32.2018C127.561 35.4803 128.864 38.6246 131.184 40.9429C133.503 43.2612 136.649 44.5636 139.93 44.5636H255.493C258.773 44.5636 261.919 43.2612 264.239 40.9429C266.559 38.6246 267.862 35.4803 267.862 32.2018C267.862 28.9232 266.559 25.7789 264.239 23.4606C261.919 21.1423 258.773 19.8399 255.493 19.8399H139.93Z" fill="white"/>
<path d="M67.8964 90.3342C81.8783 90.3342 93.2128 79.0059 93.2128 65.0317C93.2128 51.0575 81.8783 39.7291 67.8964 39.7291C53.9146 39.7291 42.5801 51.0575 42.5801 65.0317C42.5801 79.0059 53.9146 90.3342 67.8964 90.3342Z" fill="#9E616A"/>
<path d="M61.42 89.0952C61.3118 88.8572 61.204 88.6184 61.0964 88.3788C61.1379 88.3801 61.1789 88.3861 61.2204 88.3872L61.42 89.0952Z" fill="#2F2E41"/>
<path d="M41.876 40.8797C43.1565 39.8589 44.653 38.9196 46.2901 38.9723C47.9271 39.0251 49.5872 40.5028 49.248 42.1044C52.255 36.7832 57.0412 32.6906 62.7664 30.545C68.4917 28.3993 74.7902 28.3377 80.5564 30.371C84.6252 31.8057 88.6153 34.676 89.5499 38.8858C89.7898 39.9665 89.8413 41.1514 90.5165 42.029C91.3677 43.1354 92.9963 43.3857 94.3374 42.9965C94.3508 42.9926 94.3642 42.9886 94.3776 42.9846C94.6041 42.9073 94.8487 42.8997 95.0796 42.9628C95.3105 43.0259 95.5172 43.1568 95.6728 43.3386C95.8285 43.5204 95.926 43.7446 95.9528 43.9824C95.9795 44.2202 95.9343 44.4605 95.8229 44.6723L94.6716 46.8182C96.1229 47.1415 97.6308 47.1094 99.067 46.7248C99.3055 46.6622 99.5576 46.675 99.7887 46.7613C100.02 46.8476 100.218 47.0033 100.357 47.2069C100.496 47.4105 100.569 47.6521 100.565 47.8986C100.561 48.1451 100.481 48.3843 100.336 48.5836C96.5399 53.7926 90.1979 57.1563 83.7259 57.1168C79.126 57.0887 74.4788 55.5043 70.0021 56.5615C68.2702 56.9705 66.652 57.7618 65.266 58.8774C63.8801 59.993 62.7616 61.4046 61.9927 63.0086C61.2237 64.6126 60.8239 66.3683 60.8224 68.1468C60.8209 69.9254 61.2179 71.6818 61.9841 73.287C60.6089 71.7836 57.9503 72.1395 56.5435 73.6136C55.1368 75.0877 54.7726 77.2878 54.9144 79.32C55.1311 82.4281 56.3496 85.3568 57.634 88.2073C46.8648 87.8684 36.6788 80.3181 33.2501 70.106C29.8072 59.8512 33.4155 47.6252 41.876 40.8797Z" fill="#2F2E41"/>
<path opacity="0.2" d="M24.918 141.017L32.0186 179.629L36.2792 180L24.918 141.017Z" fill="black"/>
<path opacity="0.2" d="M103.133 138.105L96.0325 179.601L91.772 180L103.133 138.105Z" fill="black"/>
<path d="M47.9325 27.8849C46.571 28.4531 45.1504 27.8304 44.5546 26.4044C43.9497 24.9566 44.5147 23.4868 45.898 22.9095C47.2814 22.3322 48.6767 22.9564 49.2913 24.4276C49.8968 25.8767 49.338 27.2983 47.9325 27.8849ZM45.3245 20.0598L44.242 20.5115C43.9716 20.623 43.6691 20.6291 43.3945 20.5284C43.1198 20.4277 42.893 20.2277 42.7588 19.9678L42.7053 19.8632C41.5405 17.7637 41.4071 15.2121 42.311 12.2832C43.1483 9.65583 43.4961 7.80803 42.7967 6.13401C41.988 4.19854 40.2613 3.59225 38.0594 4.47053C37.2053 4.82694 36.9336 4.82126 36.2615 5.4876C36.1153 5.63431 35.9411 5.75009 35.7491 5.82804C35.5572 5.90599 35.3515 5.94452 35.1444 5.94132C34.9441 5.93896 34.7464 5.89632 34.563 5.81595C34.3796 5.73557 34.2143 5.6191 34.0769 5.47349C33.8121 5.19287 33.6638 4.82232 33.6619 4.43665C33.6599 4.05098 33.8045 3.67894 34.0664 3.39567C35.196 2.2138 36.5585 1.27878 38.0679 0.649633C42.7989 -1.32482 45.1806 1.59017 46.2705 4.19882C47.3365 6.75037 46.7368 9.11778 45.7733 12.1838C44.9659 14.7315 45.0129 16.6193 45.9301 18.4964C45.9963 18.6383 46.0332 18.7921 46.0384 18.9486C46.0437 19.1051 46.0172 19.261 45.9607 19.407C45.9041 19.5531 45.8186 19.6861 45.7093 19.7983C45.6 19.9105 45.4691 19.9994 45.3245 20.0598Z" fill="#59C9A5"/>
<path d="M165.456 39.5935H142.463C142.39 39.594 142.318 39.58 142.25 39.5524C142.183 39.5249 142.121 39.4842 142.069 39.4327C142.017 39.3813 141.976 39.3201 141.948 39.2527C141.92 39.1853 141.906 39.113 141.906 39.04C141.906 38.967 141.92 38.8947 141.948 38.8273C141.976 38.7599 142.017 38.6987 142.069 38.6472C142.121 38.5958 142.183 38.5551 142.25 38.5275C142.318 38.4999 142.39 38.486 142.463 38.4865H165.456C165.602 38.4875 165.742 38.5462 165.845 38.6499C165.948 38.7536 166.006 38.8938 166.006 39.04C166.006 39.1861 165.948 39.3263 165.845 39.43C165.742 39.5337 165.602 39.5925 165.456 39.5935Z" fill="#59C9A5"/>
<path d="M194.624 39.7779H171.631C171.558 39.7784 171.485 39.7645 171.418 39.7369C171.35 39.7093 171.289 39.6686 171.237 39.6172C171.185 39.5657 171.144 39.5045 171.116 39.4371C171.088 39.3697 171.073 39.2974 171.073 39.2244C171.073 39.1514 171.088 39.0791 171.116 39.0117C171.144 38.9443 171.185 38.8831 171.237 38.8317C171.289 38.7802 171.35 38.7396 171.418 38.712C171.485 38.6844 171.558 38.6704 171.631 38.6709H194.624C194.697 38.6704 194.769 38.6844 194.837 38.712C194.904 38.7396 194.966 38.7802 195.018 38.8317C195.07 38.8831 195.111 38.9443 195.139 39.0117C195.167 39.0791 195.181 39.1514 195.181 39.2244C195.181 39.2974 195.167 39.3697 195.139 39.4371C195.111 39.5045 195.07 39.5657 195.018 39.6172C194.966 39.6686 194.904 39.7093 194.837 39.7369C194.769 39.7645 194.697 39.7784 194.624 39.7779Z" fill="#59C9A5"/>
<path d="M223.791 39.9625H200.799C200.652 39.9615 200.512 39.9028 200.409 39.7991C200.306 39.6954 200.249 39.5551 200.249 39.409C200.249 39.2628 200.306 39.1226 200.409 39.0189C200.512 38.9152 200.652 38.8565 200.799 38.8555H223.791C223.864 38.855 223.937 38.8689 224.005 38.8965C224.072 38.9241 224.134 38.9648 224.185 39.0163C224.237 39.0677 224.278 39.1289 224.307 39.1963C224.335 39.2637 224.349 39.336 224.349 39.409C224.349 39.482 224.335 39.5543 224.307 39.6217C224.278 39.6891 224.237 39.7503 224.185 39.8017C224.134 39.8532 224.072 39.8939 224.005 39.9215C223.937 39.9491 223.864 39.963 223.791 39.9625Z" fill="#59C9A5"/>
<path d="M252.959 40.1469H229.967C229.82 40.146 229.68 40.0872 229.577 39.9835C229.474 39.8798 229.417 39.7396 229.417 39.5934C229.417 39.4473 229.474 39.3071 229.577 39.2034C229.68 39.0997 229.82 39.0409 229.967 39.0399H252.959C253.106 39.0409 253.246 39.0997 253.349 39.2034C253.452 39.3071 253.509 39.4473 253.509 39.5934C253.509 39.7396 253.452 39.8798 253.349 39.9835C253.246 40.0872 253.106 40.146 252.959 40.1469Z" fill="#59C9A5"/>
<path d="M153.909 34.4994C156.269 34.4994 158.183 32.5872 158.183 30.2283C158.183 27.8695 156.269 25.9573 153.909 25.9573C151.549 25.9573 149.636 27.8695 149.636 30.2283C149.636 32.5872 151.549 34.4994 153.909 34.4994Z" fill="#59C9A5"/>
<path d="M183.253 34.4994C185.613 34.4994 187.526 32.5872 187.526 30.2283C187.526 27.8695 185.613 25.9573 183.253 25.9573C180.893 25.9573 178.979 27.8695 178.979 30.2283C178.979 32.5872 180.893 34.4994 183.253 34.4994Z" fill="#59C9A5"/>
<path d="M212.597 34.4994C214.957 34.4994 216.871 32.5872 216.871 30.2283C216.871 27.8695 214.957 25.9573 212.597 25.9573C210.237 25.9573 208.324 27.8695 208.324 30.2283C208.324 32.5872 210.237 34.4994 212.597 34.4994Z" fill="#59C9A5"/>
<path d="M241.941 34.4994C244.301 34.4994 246.214 32.5872 246.214 30.2283C246.214 27.8695 244.301 25.9573 241.941 25.9573C239.581 25.9573 237.667 27.8695 237.667 30.2283C237.667 32.5872 239.581 34.4994 241.941 34.4994Z" fill="#59C9A5"/>
</g>
<defs>
<clipPath id="clip0_1024_76">
<rect width="271" height="180" fill="white"/>
</clipPath>
</defs>
</svg>
