<svg width="167" height="146" viewBox="0 0 167 146" fill="none" xmlns="http://www.w3.org/2000/svg">
<g clip-path="url(#clip0_1025_6)">
<path d="M8.05833 49.7523L0.00600386 45.2219C-0.102613 40.3747 0.97491 35.5743 3.14501 31.2375C5.00151 39.6547 14.7716 43.6593 19.2795 51.0085C20.6678 53.3114 21.5196 55.8969 21.7717 58.5733C22.0238 61.2498 21.6697 63.9486 20.7357 66.4697L21.2652 72.9958C17.1035 71.7506 13.2615 69.619 10.0039 66.7478C6.7463 63.8766 4.15055 60.334 2.39551 56.3642C1.43302 54.1274 0.756346 51.7784 0.381459 49.3727C4.1358 49.7718 8.05833 49.7523 8.05833 49.7523Z" fill="#F2F2F2"/>
<path d="M152.812 132.174L153.059 126.628C155.633 125.254 158.504 124.528 161.423 124.513C157.406 127.794 157.908 134.118 155.184 138.529C154.324 139.899 153.167 141.057 151.798 141.919C150.429 142.781 148.883 143.324 147.275 143.508L143.914 145.564C143.453 142.995 143.554 140.357 144.212 137.832C144.87 135.306 146.067 132.953 147.723 130.934C148.663 129.811 149.741 128.811 150.931 127.956C151.737 130.077 152.812 132.174 152.812 132.174Z" fill="#F2F2F2"/>
<path d="M144.151 142.71L141.107 142.71L139.659 130.982L144.152 130.982L144.151 142.71Z" fill="#FFB6B6"/>
<path d="M144.927 145.657L135.113 145.657V145.533C135.113 144.521 135.515 143.55 136.232 142.834C136.948 142.119 137.92 141.717 138.933 141.717L140.726 140.358L144.071 141.717L144.927 141.717L144.927 145.657Z" fill="#2F2E41"/>
<path d="M130.01 142.71L126.967 142.71L125.519 130.982L130.011 130.982L130.01 142.71Z" fill="#FFB6B6"/>
<path d="M130.786 145.657L120.972 145.657V145.533C120.972 144.521 121.375 143.55 122.091 142.834C122.807 142.119 123.779 141.717 124.792 141.717L126.585 140.358L129.93 141.717L130.787 141.717L130.786 145.657Z" fill="#2F2E41"/>
<path d="M128.692 78.5945L148.49 79.0889C152.25 81.129 152.308 85.5444 151.076 90.7868C151.076 90.7868 151.491 93.9027 150.66 94.7336C149.828 95.5645 149.412 95.5645 149.828 97.0186C150.244 98.4727 148.046 100.848 148.313 101.114C148.58 101.381 149.204 102.835 149.204 102.835L147.124 114.675C147.124 114.675 145.669 135.24 145.253 135.656C144.837 136.071 144.421 135.656 144.837 136.695C145.253 137.733 145.669 137.318 145.253 137.733C144.884 138.13 144.537 138.546 144.213 138.98H139.185C139.185 138.98 138.806 136.902 138.806 136.695C138.806 136.487 138.39 135.24 138.39 135.033C138.39 134.825 138.758 134.458 138.758 134.458C138.885 134.036 138.971 133.602 139.014 133.163C139.014 132.748 140.262 116.753 140.262 116.753L137.767 95.98L131.736 116.337C131.736 116.337 131.736 134.202 131.32 134.617C130.904 135.033 130.904 134.825 131.112 135.656C131.32 136.487 132.152 136.279 131.528 136.902C130.904 137.525 130.696 136.487 130.904 137.525L131.112 138.564L124.874 138.653C124.874 138.653 124.042 136.902 124.458 136.279C124.874 135.656 124.849 135.826 124.341 134.806C123.834 133.786 123.626 133.579 123.834 133.371C124.042 133.163 124.042 132.058 124.042 132.058L125.082 112.183C125.082 112.183 125.289 91.2022 125.289 90.579C125.305 90.2584 125.246 89.9385 125.117 89.6445V88.7986L125.913 85.8013L128.692 78.5945Z" fill="#2F2E41"/>
<path d="M140.585 37.4723C143.983 37.4723 146.737 34.7213 146.737 31.3277C146.737 27.9341 143.983 25.183 140.585 25.183C137.188 25.183 134.434 27.9341 134.434 31.3277C134.434 34.7213 137.188 37.4723 140.585 37.4723Z" fill="#FFB6B6"/>
<path d="M137.51 41.5335C136.185 42.3205 135.392 43.7665 134.937 45.2379C134.094 47.9621 133.587 50.7787 133.427 53.6254L132.946 62.1479L126.993 80.2948C132.152 84.6555 151.545 81.2859 151.545 81.2859C151.545 81.2859 152.14 81.0877 151.545 80.493C150.95 79.8984 150.37 80.4252 150.965 79.8305C151.561 79.2359 151.15 79.8984 150.952 79.3037C150.753 78.7091 150.952 79.1055 151.15 78.9073C151.349 78.7091 149.614 76.9251 149.614 76.9251L151.202 66.5086L153.186 45.4978C150.805 42.5246 146.016 40.7719 146.016 40.7719L144.779 38.547L138.592 39.0414L137.51 41.5335Z" fill="#E6E6E6"/>
<path d="M136.666 27.7214C136.904 27.7233 137.141 27.7543 137.371 27.8139C137.826 27.923 138.287 28.0002 138.752 28.0451C140.176 28.179 141.514 28.7856 142.552 29.7682C143.591 30.7508 144.27 32.0527 144.481 33.4658C144.838 33.1545 145.651 32.5819 146.318 33.1141C146.328 33.1225 146.334 33.1269 146.357 33.1158C146.8 32.906 147.586 30.3236 147.61 28.0499C147.623 26.843 147.432 25.302 146.455 24.814L146.404 24.7882L146.39 24.7324C146.325 24.4609 145.596 23.9975 144.328 23.6368C142.024 22.9814 138.591 21.7046 136.657 23.5836C136.511 24.2171 136.035 25.5727 135.554 25.7264C135.021 25.8965 134.561 26.0432 134.489 26.6958C134.428 27.6244 134.432 28.5561 134.502 29.4841C134.682 28.9162 135.036 28.4192 135.515 28.063C135.854 27.8344 136.256 27.7152 136.666 27.7214Z" fill="#2F2E41"/>
<path d="M125.217 61.6735L135.265 55.2453L130.204 48.5249L125.206 54.6655L109.636 55.6195C109.226 55.2151 108.708 54.9384 108.143 54.8233C107.579 54.7082 106.994 54.7595 106.458 54.9711C105.923 55.1826 105.46 55.5453 105.128 56.0147C104.795 56.4842 104.606 57.0403 104.584 57.6151C104.562 58.1899 104.708 58.7587 105.005 59.252C105.301 59.7454 105.734 60.142 106.252 60.3935C106.77 60.645 107.35 60.7406 107.921 60.6686C108.493 60.5965 109.031 60.36 109.47 59.9878L125.217 61.6735Z" fill="#FFB6B6"/>
<path d="M144.591 46.2728C145.174 49.7984 134.161 56.5307 134.161 56.5307C134.161 55.7032 127.588 61.9504 127.291 61.2641C126.448 59.3135 125.855 54.6936 124.677 53.9541C124.003 53.5312 128.735 49.5586 128.735 49.5586C128.735 49.5586 131.212 47.0658 134.463 43.9215C135.365 43.0156 136.483 42.3524 137.711 41.9938C138.939 41.6353 140.238 41.5929 141.487 41.8707C141.487 41.8707 144.008 42.7472 144.591 46.2728Z" fill="#E6E6E6"/>
<path d="M165.302 63.3608L158.656 53.4618L152.037 58.6585L158.288 63.5193L159.573 79.0496C159.177 79.4671 158.911 79.9908 158.808 80.5567C158.704 81.1226 158.768 81.7063 158.991 82.2367C159.214 82.767 159.587 83.221 160.064 83.5434C160.541 83.8658 161.101 84.0426 161.677 84.0522C162.253 84.0619 162.819 83.904 163.307 83.5978C163.794 83.2916 164.182 82.8503 164.423 82.3278C164.663 81.8052 164.747 81.224 164.663 80.6549C164.578 80.0859 164.33 79.5536 163.948 79.123L165.302 63.3608Z" fill="#FFB6B6"/>
<path d="M149.478 44.3379C152.994 43.6808 159.966 54.537 159.966 54.537C159.137 54.5547 165.529 60.987 164.848 61.2979C162.914 62.1813 158.303 62.8713 157.588 64.0637C157.179 64.7456 153.102 60.1037 153.102 60.1037C153.102 60.1037 150.555 57.6826 147.339 54.5027C146.413 53.6206 145.726 52.5188 145.341 51.2999C144.956 50.081 144.886 48.7846 145.138 47.5315C145.138 47.5315 145.962 44.9949 149.478 44.3379Z" fill="#E6E6E6"/>
<path d="M167 145.706C167 145.744 166.992 145.783 166.978 145.819C166.963 145.854 166.941 145.887 166.914 145.914C166.887 145.941 166.854 145.963 166.818 145.978C166.782 145.993 166.744 146 166.705 146H97.3409C97.2628 146 97.1879 145.969 97.1326 145.914C97.0774 145.859 97.0464 145.784 97.0464 145.706C97.0464 145.628 97.0774 145.553 97.1326 145.498C97.1879 145.443 97.2628 145.412 97.3409 145.412H166.705C166.744 145.412 166.782 145.419 166.818 145.434C166.854 145.449 166.887 145.47 166.914 145.498C166.941 145.525 166.963 145.557 166.978 145.593C166.992 145.629 167 145.667 167 145.706Z" fill="#CCCCCC"/>
<path d="M102.742 56.559H18.5585C17.2432 56.5604 15.9823 57.083 15.0523 58.012C14.1223 58.941 13.5991 60.2006 13.5977 61.5144V113.87C13.5992 115.184 14.1223 116.443 15.0523 117.372C15.9823 118.301 17.2432 118.824 18.5585 118.825H102.742C104.057 118.824 105.318 118.301 106.248 117.372C107.178 116.443 107.701 115.184 107.703 113.87V61.5144C107.701 60.2006 107.178 58.941 106.248 58.012C105.318 57.083 104.057 56.5604 102.742 56.559Z" fill="#59C9A5"/>
<path d="M102.742 56.559H18.5585C17.2432 56.5604 15.9823 57.083 15.0523 58.012C14.1223 58.941 13.5991 60.2006 13.5977 61.5144V113.87C13.5992 115.184 14.1223 116.443 15.0523 117.372C15.9823 118.301 17.2432 118.824 18.5585 118.825H102.742C104.057 118.824 105.318 118.301 106.248 117.372C107.178 116.443 107.701 115.184 107.703 113.87V61.5144C107.701 60.2006 107.178 58.941 106.248 58.012C105.318 57.083 104.057 56.5604 102.742 56.559ZM104.37 94.1665C104.35 99.4966 102.239 104.607 98.4906 108.4C94.7423 112.194 89.6549 114.368 84.3198 114.458C75.7778 114.569 89.0459 114.613 78.7438 114.613C55.186 114.613 30.6219 114.388 21.4567 114.242C20.2508 114.217 19.1025 113.722 18.2568 112.863C17.4111 112.004 16.9351 110.849 16.9305 109.644V61.5183C16.9309 61.0869 17.1025 60.6732 17.4075 60.3677C17.7125 60.0623 18.1262 59.8899 18.5581 59.8884H102.738C103.17 59.8889 103.584 60.0602 103.89 60.3648C104.196 60.6694 104.368 61.0826 104.37 61.5139V94.1665Z" fill="#3F3D56"/>
<path d="M92.3791 26.411H28.2403C27.6728 26.4118 27.1194 26.5876 26.6556 26.9143C26.1918 27.2409 25.8403 27.7027 25.649 28.2363L15.7432 55.9976C15.5953 56.412 15.5492 56.8557 15.6087 57.2916C15.6683 57.7275 15.8316 58.1427 16.0852 58.5024C16.3387 58.862 16.675 59.1557 17.0657 59.3586C17.4564 59.5615 17.8902 59.6677 18.3306 59.6683L104.351 59.8208H104.355C104.81 59.8208 105.258 59.7079 105.659 59.4923C106.06 59.2767 106.401 58.9652 106.652 58.5855C106.902 58.2059 107.055 57.77 107.095 57.3171C107.136 56.8642 107.063 56.4083 106.884 55.9903L94.9076 28.0765C94.6959 27.582 94.3433 27.1604 93.8938 26.8643C93.4443 26.5682 92.9175 26.4106 92.3791 26.411Z" fill="#3F3D56"/>
<path d="M107.106 56.5932C107.106 56.9654 107.03 57.3337 106.884 57.6759L94.9083 79.1631C94.6951 79.6566 94.3421 80.0771 93.8927 80.3727C93.4433 80.6683 92.9172 80.8261 92.3792 80.8268H28.2413C27.6736 80.8263 27.1199 80.6508 26.6558 80.3243C26.1916 79.9978 25.8396 79.5362 25.6478 79.0025L15.7439 57.6685C15.6225 57.3286 15.5693 56.9682 15.5875 56.6078C15.6056 56.2474 15.6947 55.894 15.8496 55.568C16.0045 55.242 16.2222 54.9497 16.4902 54.7078C16.7583 54.4659 17.0715 54.2791 17.4118 54.1582C17.7063 54.052 18.0169 53.9976 18.33 53.9975L28.8377 53.9777L33.1264 53.9703L89.5604 53.8714L93.8516 53.864L104.352 53.8442H104.354C105.084 53.8444 105.784 54.134 106.3 54.6495C106.816 55.165 107.106 55.8641 107.106 56.5932Z" fill="#3F3D56"/>
<path d="M24.8698 95.8315C26.1416 95.8315 43.607 96.8978 43.607 98.1683C43.607 99.4388 26.1416 100.432 24.8698 100.432C24.259 100.432 23.6733 100.19 23.2414 99.7586C22.8095 99.3272 22.5669 98.7421 22.5669 98.132C22.5669 97.5218 22.8095 96.9367 23.2414 96.5053C23.6733 96.0739 24.259 95.8315 24.8698 95.8315Z" fill="#3F3D56"/>
<path d="M88.3846 9.52258H34.3041C32.8548 9.52426 31.4653 10.1001 30.4404 11.1239C29.4156 12.1476 28.8391 13.5356 28.8374 14.9834V80.8269H92.3788C92.9006 80.8286 93.4118 80.6801 93.8513 80.3992V14.9834C93.8496 13.5356 93.2731 12.1476 92.2483 11.1239C91.2235 10.1001 89.834 9.52426 88.3846 9.52258Z" fill="#E6E6E6"/>
<path d="M67.7431 13.95H38.1056C36.7859 13.9512 35.5206 14.4753 34.5871 15.4073C33.6537 16.3393 33.1284 17.603 33.1265 18.9213V80.8268H89.5604V35.7437C89.5538 29.9657 87.253 24.4262 83.1629 20.3406C79.0729 16.2549 73.5274 13.9566 67.7431 13.95Z" fill="white"/>
<path d="M79.9457 75.329H42.7405C42.4188 75.329 42.1104 75.4566 41.883 75.6838C41.6556 75.9109 41.5278 76.219 41.5278 76.5403C41.5278 76.8616 41.6556 77.1697 41.883 77.3968C42.1104 77.624 42.4188 77.7516 42.7405 77.7516H79.9457C80.2673 77.7516 80.5757 77.624 80.8032 77.3968C81.0306 77.1697 81.1583 76.8616 81.1583 76.5403C81.1583 76.219 81.0306 75.9109 80.8032 75.6838C80.5757 75.4566 80.2673 75.329 79.9457 75.329Z" fill="#E4E4E4"/>
<path d="M79.946 70.5381H42.7407C42.4188 70.5381 42.11 70.6658 41.8824 70.8932C41.6547 71.1206 41.5269 71.429 41.5269 71.7506C41.5269 72.0722 41.6547 72.3806 41.8824 72.608C42.11 72.8354 42.4188 72.9632 42.7407 72.9632H79.946C80.2679 72.9632 80.5766 72.8354 80.8043 72.608C81.0319 72.3806 81.1598 72.0722 81.1598 71.7506C81.1598 71.429 81.0319 71.1206 80.8043 70.8932C80.5766 70.6658 80.2679 70.5381 79.946 70.5381Z" fill="#E4E4E4"/>
<path d="M58.8683 65.7498H42.7405C42.4188 65.7498 42.1104 65.8774 41.883 66.1045C41.6556 66.3317 41.5278 66.6398 41.5278 66.9611C41.5278 67.2823 41.6556 67.5904 41.883 67.8176C42.1104 68.0448 42.4188 68.1724 42.7405 68.1724H58.8683C59.1899 68.1724 59.4984 68.0448 59.7258 67.8176C59.9532 67.5904 60.081 67.2823 60.081 66.9611C60.081 66.6398 59.9532 66.3317 59.7258 66.1045C59.4984 65.8774 59.1899 65.7498 58.8683 65.7498Z" fill="#E4E4E4"/>
<path d="M79.946 55.718H42.7407C42.4188 55.718 42.11 55.8458 41.8824 56.0732C41.6547 56.3006 41.5269 56.609 41.5269 56.9306C41.5269 57.2522 41.6547 57.5606 41.8824 57.788C42.11 58.0154 42.4188 58.1431 42.7407 58.1431H79.946C80.2679 58.1431 80.5766 58.0154 80.8043 57.788C81.0319 57.5606 81.1598 57.2522 81.1598 56.9306C81.1598 56.609 81.0319 56.3006 80.8043 56.0732C80.5766 55.8458 80.2679 55.718 79.946 55.718Z" fill="#E4E4E4"/>
<path d="M79.9457 50.9297H42.7405C42.4188 50.9297 42.1104 51.0573 41.883 51.2845C41.6556 51.5116 41.5278 51.8197 41.5278 52.141C41.5278 52.4623 41.6556 52.7704 41.883 52.9975C42.1104 53.2247 42.4188 53.3523 42.7405 53.3523H79.9457C80.2673 53.3523 80.5757 53.2247 80.8032 52.9975C81.0306 52.7704 81.1583 52.4623 81.1583 52.141C81.1583 51.8197 81.0306 51.5116 80.8032 51.2845C80.5757 51.0573 80.2673 50.9297 79.9457 50.9297Z" fill="#E4E4E4"/>
<path d="M58.8686 46.1388H42.7407C42.4188 46.1388 42.11 46.2665 41.8824 46.4939C41.6547 46.7213 41.5269 47.0298 41.5269 47.3513C41.5269 47.6729 41.6547 47.9813 41.8824 48.2087C42.11 48.4361 42.4188 48.5639 42.7407 48.5639H58.8686C59.1905 48.5639 59.4993 48.4361 59.7269 48.2087C59.9546 47.9813 60.0825 47.6729 60.0825 47.3513C60.0825 47.0298 59.9546 46.7213 59.7269 46.4939C59.4993 46.2665 59.1905 46.1388 58.8686 46.1388Z" fill="#E4E4E4"/>
<path d="M79.946 36.1072H42.7407C42.4188 36.1072 42.11 36.2349 41.8824 36.4623C41.6547 36.6897 41.5269 36.9981 41.5269 37.3197C41.5269 37.6413 41.6547 37.9497 41.8824 38.1771C42.11 38.4045 42.4188 38.5323 42.7407 38.5323H79.946C80.2679 38.5323 80.5766 38.4045 80.8043 38.1771C81.0319 37.9497 81.1598 37.6413 81.1598 37.3197C81.1598 36.9981 81.0319 36.6897 80.8043 36.4623C80.5766 36.2349 80.2679 36.1072 79.946 36.1072Z" fill="#59C9A5"/>
<path d="M79.946 31.3187H42.7407C42.4188 31.3187 42.11 31.4465 41.8824 31.6739C41.6547 31.9013 41.5269 32.2097 41.5269 32.5313C41.5269 32.8529 41.6547 33.1613 41.8824 33.3887C42.11 33.6161 42.4188 33.7438 42.7407 33.7438H79.946C80.2679 33.7438 80.5766 33.6161 80.8043 33.3887C81.0319 33.1613 81.1598 32.8529 81.1598 32.5313C81.1598 32.2097 81.0319 31.9013 80.8043 31.6739C80.5766 31.4465 80.2679 31.3187 79.946 31.3187Z" fill="#59C9A5"/>
<path d="M58.8686 26.5278H42.7407C42.4188 26.5278 42.11 26.6556 41.8824 26.883C41.6547 27.1104 41.5269 27.4188 41.5269 27.7404C41.5269 28.062 41.6547 28.3704 41.8824 28.5978C42.11 28.8252 42.4188 28.9529 42.7407 28.9529H58.8686C59.1905 28.9529 59.4993 28.8252 59.7269 28.5978C59.9546 28.3704 60.0825 28.062 60.0825 27.7404C60.0825 27.4188 59.9546 27.1104 59.7269 26.883C59.4993 26.6556 59.1905 26.5278 58.8686 26.5278Z" fill="#59C9A5"/>
<path d="M91.8242 18.8682C97.0401 18.8682 101.268 14.6444 101.268 9.43411C101.268 4.22379 97.0401 0 91.8242 0C86.6082 0 82.3799 4.22379 82.3799 9.43411C82.3799 14.6444 86.6082 18.8682 91.8242 18.8682Z" fill="#59C9A5"/>
<path d="M90.5355 14.3441C90.3724 14.3441 90.2115 14.3062 90.0657 14.2333C89.9198 14.1604 89.7929 14.0546 89.6951 13.9243L87.1186 10.4925C87.0353 10.3823 86.9747 10.2568 86.9401 10.1231C86.9056 9.98945 86.8977 9.85029 86.9171 9.7136C86.9365 9.57691 86.9826 9.44538 87.053 9.32655C87.1233 9.20771 87.2164 9.10391 87.327 9.02108C87.4375 8.93825 87.5634 8.87803 87.6973 8.84387C87.8312 8.8097 87.9705 8.80226 88.1073 8.82198C88.2441 8.84169 88.3756 8.88817 88.4944 8.95876C88.6132 9.02934 88.7168 9.12264 88.7994 9.23331L90.4851 11.4783L94.8145 4.99124C94.9691 4.75966 95.2094 4.59889 95.4826 4.54431C95.7558 4.48972 96.0396 4.54579 96.2714 4.70018C96.5032 4.85457 96.6642 5.09463 96.7188 5.36755C96.7735 5.64048 96.7173 5.9239 96.5628 6.15548L91.4097 13.8768C91.3164 14.0164 91.1911 14.1317 91.0441 14.213C90.897 14.2942 90.7327 14.3391 90.5647 14.3438C90.555 14.344 90.5452 14.3441 90.5355 14.3441Z" fill="white"/>
</g>
<defs>
<clipPath id="clip0_1025_6">
<rect width="167" height="146" fill="white"/>
</clipPath>
</defs>
</svg>
