<svg width="20" height="20" viewBox="0 0 20 20" fill="none" xmlns="http://www.w3.org/2000/svg">
<defs>
<linearGradient id="paint0_linear_1128_129" x1="4.92749" y1="3.87695" x2="15.3032" y2="4.09221" gradientUnits="userSpaceOnUse">
<stop stop-color="#6FE3E1"/>
<stop offset="1" stop-color="#5257E5"/>
</linearGradient>
</defs>
<path d="M9.99376 3.87695C9.79286 3.87695 9.61708 3.97112 9.40991 4.13435L5.17233 7.56208C5.02166 7.68764 4.92749 7.87598 4.92749 8.10826C4.92749 8.53516 5.27277 8.84905 5.66828 8.84905C5.85034 8.84905 6.0324 8.77999 6.21446 8.6356L10 5.58454L13.7793 8.6356C13.9551 8.77999 14.1434 8.84905 14.3255 8.84905C14.721 8.84905 15.0663 8.53516 15.0663 8.10826C15.0663 7.87598 14.9721 7.68764 14.8215 7.56208L10.5776 4.13435C10.3767 3.97112 10.2009 3.87695 9.99376 3.87695ZM9.99376 15.5099C10.2009 15.5099 10.3767 15.422 10.5776 15.2588L14.8215 11.8311C14.9721 11.6992 15.0663 11.5109 15.0663 11.2849C15.0663 10.8517 14.721 10.5378 14.3255 10.5378C14.1434 10.5378 13.9551 10.6131 13.7793 10.7575L10 13.8086L6.21446 10.7575C6.0324 10.6131 5.85034 10.5378 5.66828 10.5378C5.27277 10.5378 4.92749 10.8517 4.92749 11.2849C4.92749 11.5109 5.02166 11.6992 5.17233 11.8311L9.40991 15.2525C9.61708 15.422 9.79286 15.5099 9.99376 15.5099Z" fill="url(#paint0_linear_1128_129)"/>

</svg>
