<svg width="24" height="24" viewBox="0 0 24 24" fill="none" xmlns="http://www.w3.org/2000/svg">
<path d="M4.52356 24H22.6876C23.4276 24 24 23.5457 24 22.9584C24 22.4598 23.5672 22.0942 23.0366 21.8947C21.3194 21.2853 20.9843 19.4017 22.7295 18.0831C23.4415 17.5845 23.986 17.0305 23.986 15.9114V3.64543C23.986 1.25208 22.4363 0 19.4346 0H4.55148C1.5637 0 0 1.241 0 3.64543V20.3878C0 22.759 1.5637 24 4.52356 24ZM4.34206 16.6981C3.88133 16.6981 3.4904 16.3989 3.4904 16.0222V2.5374C3.4904 2.16066 3.88133 1.8615 4.34206 1.8615C4.80279 1.8615 5.19372 2.16066 5.19372 2.5374V16.0222C5.19372 16.3989 4.80279 16.6981 4.34206 16.6981ZM9.089 7.25762C8.53054 7.25762 8.04188 6.88089 8.04188 6.43767C8.04188 5.9723 8.53054 5.60665 9.089 5.60665H19.1972C19.7696 5.60665 20.2443 5.9723 20.2443 6.43767C20.2443 6.88089 19.7696 7.25762 19.1972 7.25762H9.089ZM9.089 10.4709C8.53054 10.4709 8.04188 10.1053 8.04188 9.63989C8.04188 9.19668 8.53054 8.81994 9.089 8.81994H16.7679C17.3403 8.81994 17.815 9.19668 17.815 9.63989C17.815 10.1053 17.3403 10.4709 16.7679 10.4709H9.089ZM4.90052 21.9169C3.40663 21.9169 2.62478 21.241 2.62478 20.1994C2.62478 19.1911 3.51832 18.4931 4.99825 18.4931H18.9319C19.0855 18.4931 19.2391 18.482 19.3787 18.4598C18.6806 19.6343 18.7644 20.9086 19.5183 21.9169H4.90052Z" fill="white"/>
</svg>
