<svg width="32" height="32" viewBox="0 0 32 32" fill="none" xmlns="http://www.w3.org/2000/svg">
<g clip-path="url(#clip0_1752_73)">
<path d="M26.6667 24C27.0065 24.0004 27.3334 24.1305 27.5805 24.3638C27.8276 24.5971 27.9763 24.9159 27.9962 25.2552C28.0161 25.5944 27.9058 25.9285 27.6876 26.1891C27.4695 26.4497 27.1601 26.6172 26.8227 26.6573L26.6667 26.6667H5.33332C4.99348 26.6663 4.66661 26.5362 4.4195 26.3029C4.17238 26.0696 4.02367 25.7507 4.00376 25.4115C3.98384 25.0722 4.09422 24.7382 4.31234 24.4776C4.53046 24.217 4.83986 24.0495 5.17732 24.0093L5.33332 24H26.6667Z" fill="white"/>
<path d="M20.2933 7.16665C20.5121 6.89362 20.8295 6.71753 21.177 6.67638C21.5244 6.63522 21.8741 6.73229 22.1507 6.94665L22.276 7.05732L27.6093 12.3907C27.8166 12.5981 27.9496 12.868 27.988 13.1587L28 13.3333V20C28 20.3266 27.8801 20.6418 27.663 20.8858C27.446 21.1299 27.147 21.2858 26.8227 21.324L26.6667 21.3333H5.304L5.15733 21.3213L5.01067 21.2947L4.868 21.2493L4.728 21.188L4.59467 21.1093L4.46933 21.016L4.38933 20.9427L4.29333 20.8333L4.208 20.7147L4.136 20.5867L4.11467 20.54L4.06133 20.4027L4.02533 20.2613L4.00533 20.1173L4 19.9707L4.012 19.824L4.03733 19.684C4.05067 19.6307 4.06667 19.5813 4.084 19.5347L4.14533 19.3947L4.224 19.2613L9.55733 11.2613C9.72149 11.0142 9.96338 10.8288 10.2447 10.7347C10.5261 10.6405 10.8308 10.6428 11.1107 10.7413L11.2627 10.808L15.632 12.992L20.292 7.16665H20.2933Z" fill="white"/>
</g>
<defs>
<clipPath id="clip0_1752_73">
<rect width="32" height="32" fill="white"/>
</clipPath>
</defs>
</svg>
