<svg width="20" height="20" viewBox="0 0 20 20" fill="none" xmlns="http://www.w3.org/2000/svg">
<path d="M9.9999 13.2061C10.2196 13.1998 10.4205 13.1182 10.5837 12.9424L15.3549 8.05818C15.4931 7.92006 15.5684 7.74428 15.5684 7.53711C15.5684 7.12277 15.2419 6.79004 14.8276 6.79004C14.6267 6.79004 14.4321 6.87165 14.2877 7.01604L10.0062 11.4169L5.71209 7.01604C5.5677 6.87793 5.37936 6.79004 5.17219 6.79004C4.75785 6.79004 4.4314 7.12277 4.4314 7.53711C4.4314 7.74428 4.50673 7.92006 4.64485 8.05818L9.42233 12.9424C9.59183 13.1182 9.78017 13.2061 9.9999 13.2061Z" fill="#323945"/>
</svg>
