<svg width="44" height="44" viewBox="0 0 44 44" fill="none" xmlns="http://www.w3.org/2000/svg">
<g clip-path="url(#clip0_1741_73)">
<path d="M21.0835 38.5001H11.0002C10.0277 38.5001 9.09507 38.1138 8.40744 37.4261C7.7198 36.7385 7.3335 35.8059 7.3335 34.8334V12.8334C7.3335 11.861 7.7198 10.9283 8.40744 10.2407C9.09507 9.55306 10.0277 9.16675 11.0002 9.16675H33.0002C33.9726 9.16675 34.9053 9.55306 35.5929 10.2407C36.2805 10.9283 36.6668 11.861 36.6668 12.8334V23.8334" stroke="#2C3E50" stroke-width="2.75" stroke-linecap="round" stroke-linejoin="round"/>
<path d="M29.3335 5.5V12.8333" stroke="#2C3E50" stroke-width="2.75" stroke-linecap="round" stroke-linejoin="round"/>
<path d="M14.6665 5.5V12.8333" stroke="#2C3E50" stroke-width="2.75" stroke-linecap="round" stroke-linejoin="round"/>
<path d="M7.3335 20.1667H36.6668" stroke="#2C3E50" stroke-width="2.75" stroke-linecap="round" stroke-linejoin="round"/>
<path d="M36.6665 38.5001L40.3332 34.8334L36.6665 31.1667" stroke="#2C3E50" stroke-width="2.75" stroke-linecap="round" stroke-linejoin="round"/>
<path d="M31.1667 31.1667L27.5 34.8334L31.1667 38.5001" stroke="#2C3E50" stroke-width="2.75" stroke-linecap="round" stroke-linejoin="round"/>
</g>
<defs>
<clipPath id="clip0_1741_73">
<rect width="44" height="44" fill="white"/>
</clipPath>
</defs>
</svg>
