<svg width="20" height="20" viewBox="0 0 20 20" fill="none" xmlns="http://www.w3.org/2000/svg">
<path d="M0.473268 17.1502C-0.145459 17.7688 -0.174922 18.8733 0.488 19.5066C1.12146 20.1694 2.24106 20.1399 2.85979 19.5214L10.0046 12.3785L17.1494 19.5214C17.7829 20.1546 18.873 20.1694 19.5065 19.5066C20.1694 18.8733 20.1547 17.7688 19.5212 17.1355L12.3764 9.99264L19.5212 2.86451C20.1547 2.21649 20.1694 1.12666 19.5065 0.493373C18.873 -0.169367 17.7829 -0.154639 17.1494 0.478645L10.0046 7.6215L2.85979 0.478645C2.24106 -0.139912 1.12146 -0.169367 0.488 0.493373C-0.174922 1.12666 -0.145459 2.23122 0.473268 2.84978L7.61809 9.99264L0.473268 17.1502Z" fill="#323945"/>
</svg>
