<svg width="24" height="24" viewBox="0 0 24 24" fill="none" xmlns="http://www.w3.org/2000/svg">
<path d="M13.6658 23.5068L22.9374 17.0854C23.8027 16.4746 24.189 15.5006 23.9109 14.5267C23.6018 13.4042 22.5356 12.6613 21.253 12.6613H19.955C19.4296 12.6613 19.1515 12.3807 19.1515 12.2817V3.79675C19.1515 2.93835 18.7961 2.09646 18.178 1.41965C17.3281 0.511734 16.0919 0 14.7475 0H9.24637C6.83577 0 4.85783 1.70028 4.85783 3.78024V12.2817C4.85783 12.3807 4.57968 12.6613 4.0543 12.6613H2.74082C1.45826 12.6613 0.392027 13.4207 0.0829751 14.5267C-0.179719 15.5006 0.191143 16.4746 1.05649 17.0689L10.2971 23.4903C11.2707 24.1671 12.6923 24.1671 13.6658 23.5068Z" fill="url(#paint0_linear_1098_376)"/>
<defs>
<linearGradient id="paint0_linear_1098_376" x1="0" y1="24" x2="24.5574" y2="23.4154" gradientUnits="userSpaceOnUse">
<stop stop-color="#E36FD7"/>
<stop offset="1" stop-color="#E5526C"/>
</linearGradient>
</defs>
</svg>
