<svg width="24" height="24" viewBox="0 0 24 24" fill="none" xmlns="http://www.w3.org/2000/svg">
<path d="M22.9374 17.0854L13.6658 23.5068C12.6923 24.1671 11.2707 24.1671 10.2971 23.4903L1.05649 17.0689C0.191143 16.4746 -0.179719 15.5006 0.0829751 14.5267C0.392027 13.4207 1.45826 12.6613 2.74082 12.6613H4.0543C4.57968 12.6613 4.85783 12.3807 4.85783 12.2817V3.78024C4.85783 1.70028 6.83577 0 9.24637 0H14.7475C16.0919 0 17.3281 0.511734 18.178 1.41965C18.7961 2.09646 19.1515 2.93835 19.1515 3.79675V12.2817C19.1515 12.3807 19.4296 12.6613 19.955 12.6613H21.253C22.5356 12.6613 23.6018 13.4042 23.9109 14.5267C24.189 15.5006 23.8027 16.4746 22.9374 17.0854ZM21.253 14.7413H19.955C18.4098 14.7413 17.2045 13.6683 17.2045 12.2817V8.03095V3.78024C17.2045 2.87232 16.061 2.06345 14.7475 2.06345H9.24637C7.9329 2.06345 6.78941 2.87232 6.78941 3.78024V12.2817C6.78941 13.6518 5.5841 14.7413 4.03884 14.7413H2.72537C2.24634 14.7413 1.96819 14.9724 1.92184 15.121C1.90638 15.2035 2.06091 15.319 2.09181 15.3356L11.3479 21.757C11.5179 21.8726 11.7342 21.9386 11.9815 21.9386C12.2133 21.9386 12.4451 21.8726 12.615 21.757L21.8866 15.3356C21.9021 15.319 22.0875 15.2035 22.0566 15.121C22.0257 15.0054 21.7784 14.7413 21.253 14.7413Z" fill="url(#paint0_linear_1105_280)"/>
<defs>
<linearGradient id="paint0_linear_1105_280" x1="0" y1="24" x2="24.5574" y2="23.4154" gradientUnits="userSpaceOnUse">
<stop stop-color="#E36FD7"/>
<stop offset="1" stop-color="#E5526C"/>
</linearGradient>
</defs>
</svg>
