<svg width="24" height="13" viewBox="0 0 24 13" fill="none" xmlns="http://www.w3.org/2000/svg">
<path d="M11.2568 3.38534L11.4021 3.63043H11.687H20.6625L23.2929 6.26087L19.2574 10.2963L17.5174 8.9913L17.2174 8.7663L16.9174 8.9913L15.1215 10.3382L13.2014 8.98282L13.0717 8.8913H12.913H11.687H11.4021L11.2568 9.1364C10.7429 10.0036 10.05 10.7012 9.17146 11.2332C8.30584 11.7573 7.3397 12.0217 6.26087 12.0217C4.65283 12.0217 3.3022 11.4647 2.17964 10.3421C1.05708 9.21954 0.5 7.86891 0.5 6.26087C0.5 4.65283 1.05708 3.3022 2.17964 2.17964C3.3022 1.05708 4.65283 0.5 6.26087 0.5C7.3397 0.5 8.30584 0.764439 9.17146 1.28857C10.05 1.82052 10.7429 2.51812 11.2568 3.38534ZM14.7896 8.7822L15.0857 8.99152L15.3767 8.77508L17.2113 7.41034L18.7634 8.61267L19.1116 8.88244L19.4231 8.57094L21.3796 6.61442L21.7332 6.26087L21.3796 5.90732L20.3362 4.86384L20.1897 4.71739H19.9826H10.6723C10.3736 3.87238 9.86142 3.15839 9.14278 2.58348C8.31226 1.91906 7.34476 1.58696 6.26087 1.58696C4.97938 1.58696 3.8699 2.04908 2.95949 2.95949C2.04908 3.8699 1.58696 4.97938 1.58696 6.26087C1.58696 7.54236 2.04908 8.65184 2.95949 9.56225C3.8699 10.4727 4.97938 10.9348 6.26087 10.9348C7.34476 10.9348 8.31226 10.6027 9.14278 9.93826C9.86142 9.36335 10.3736 8.64936 10.6723 7.80435H13.4063L14.7896 8.7822ZM6.26087 7.84783C5.82062 7.84783 5.45619 7.6969 5.14051 7.38123C4.82483 7.06555 4.67391 6.70112 4.67391 6.26087C4.67391 5.82062 4.82483 5.45619 5.14051 5.14051C5.45619 4.82483 5.82062 4.67391 6.26087 4.67391C6.70112 4.67391 7.06555 4.82483 7.38123 5.14051C7.6969 5.45619 7.84783 5.82062 7.84783 6.26087C7.84783 6.70112 7.6969 7.06555 7.38123 7.38123C7.06555 7.6969 6.70112 7.84783 6.26087 7.84783Z" stroke="url(#paint0_linear_1162_85)"/>
<defs>
<linearGradient id="paint0_linear_1162_85" x1="0" y1="0" x2="24.5203" y2="1.11872" gradientUnits="userSpaceOnUse">
<stop stop-color="#6FE3E1"/>
<stop offset="1" stop-color="#5257E5"/>
</linearGradient>
</defs>
</svg>
