<svg width="24" height="24" viewBox="0 0 24 24" fill="none" xmlns="http://www.w3.org/2000/svg">
<path d="M3.34177 14.2357H20.6684C22.8658 14.2357 24 13.0815 24 10.9601V7.16464C24 6.06239 23.9899 5.2721 23.3924 4.74177L19.757 1.39341C18.6228 0.353553 17.8025 0 16.2228 0H7.78734C6.19747 0 5.38734 0.353553 4.24304 1.39341L0.617722 4.74177C0.0202532 5.2721 0 6.06239 0 7.16464V10.9601C0 13.0815 1.1443 14.2357 3.34177 14.2357ZM12 9.43154C10.5924 9.43154 9.71139 8.18371 9.71139 7.01906V6.98787C9.71139 6.56152 9.45823 6.16638 8.90127 6.16638H2.7038C2.17722 6.16638 1.99494 5.91681 2.43038 5.51126L5.73165 2.46447C6.28861 1.93414 6.67342 1.72617 7.5443 1.72617H16.4658C17.3367 1.72617 17.7114 1.93414 18.2684 2.46447L21.5797 5.50087C22.0253 5.92721 21.8228 6.16638 21.3063 6.16638H15.0987C14.5418 6.16638 14.2886 6.56152 14.2886 6.98787V7.01906C14.2886 8.18371 13.4177 9.43154 12 9.43154ZM3.34177 24H20.6684C22.8456 24 24 22.8354 24 20.6101V16.9809C24 16.3362 23.6253 15.7955 22.9873 15.7955H15.119C14.562 15.7955 14.3089 16.1906 14.3089 16.617V16.6482C14.3089 17.8232 13.4278 19.0711 12 19.0711C10.5722 19.0711 9.69114 17.8232 9.69114 16.6482V16.617C9.69114 16.1906 9.43797 15.7955 8.88101 15.7955H1.04304C0.405063 15.7955 0 16.3362 0 16.9809V20.6101C0 22.8458 1.15443 24 3.34177 24Z" fill="#CCCCCC"/>
</svg>
