<svg width="28" height="28" viewBox="0 0 28 28" fill="none" xmlns="http://www.w3.org/2000/svg">
<path d="M14.0001 17.4998L17.5001 13.9998M17.5001 13.9998L14.0001 10.4998M17.5001 13.9998H4.66675M10.5001 8.45652V8.40006C10.5001 7.09327 10.5001 6.43939 10.7544 5.94027C10.9781 5.50122 11.3348 5.14453 11.7738 4.92082C12.273 4.6665 12.9269 4.6665 14.2336 4.6665H19.6003C20.9071 4.6665 21.5596 4.6665 22.0587 4.92082C22.4978 5.14453 22.8556 5.50122 23.0793 5.94027C23.3334 6.43891 23.3334 7.092 23.3334 8.39623V19.604C23.3334 20.9082 23.3334 21.5604 23.0793 22.059C22.8556 22.4981 22.4978 22.8554 22.0587 23.0791C21.5601 23.3332 20.9079 23.3332 19.6037 23.3332H14.2298C12.9256 23.3332 12.2725 23.3332 11.7738 23.0791C11.3348 22.8554 10.9781 22.4977 10.7544 22.0587C10.5001 21.5596 10.5001 20.9066 10.5001 19.5998V19.5415" stroke="url(#paint0_linear_1162_102)" stroke-width="2" stroke-linecap="round" stroke-linejoin="round"/>
<defs>
<linearGradient id="paint0_linear_1162_102" x1="4.66675" y1="4.6665" x2="23.7669" y2="5.12117" gradientUnits="userSpaceOnUse">
<stop stop-color="#6FE3E1"/>
<stop offset="1" stop-color="#5257E5"/>
</linearGradient>
</defs>
</svg>
