<svg width="24" height="24" viewBox="0 0 24 24" fill="none" xmlns="http://www.w3.org/2000/svg">
<path d="M2.2481 24H21.7519C23.1089 24 24 22.8957 24 21.2006V2.8122C24 1.11718 23.1089 0 21.7519 0H2.2481C0.881013 0 0 1.11718 0 2.8122V21.2006C0 22.8957 0.881013 24 2.2481 24ZM2.22785 4.94382C1.9443 4.94382 1.7519 4.687 1.7519 4.35313V3.0305C1.7519 2.64526 1.95443 2.3756 2.25823 2.3756H3.44304C3.71646 2.3756 3.90886 2.63242 3.90886 2.99197V4.35313C3.90886 4.687 3.71646 4.94382 3.44304 4.94382H2.22785ZM5.99494 10.8122C5.67089 10.8122 5.46835 10.5554 5.46835 10.1573V3.0305C5.46835 2.61958 5.67089 2.3756 5.99494 2.3756H17.9848C18.2987 2.3756 18.5013 2.61958 18.5013 3.0305V10.1573C18.5013 10.5554 18.2987 10.8122 17.9848 10.8122H5.99494ZM20.5367 4.94382C20.2532 4.94382 20.0608 4.687 20.0608 4.35313V2.99197C20.0608 2.63242 20.2532 2.3756 20.5367 2.3756H21.7114C22.0152 2.3756 22.2278 2.64526 22.2278 3.0305V4.35313C22.2278 4.687 22.0253 4.94382 21.7418 4.94382H20.5367ZM2.22785 9.14286C1.9443 9.14286 1.7519 8.87319 1.7519 8.55217V7.21669C1.7519 6.85714 1.9443 6.60032 2.22785 6.60032H3.44304C3.71646 6.60032 3.90886 6.85714 3.90886 7.21669V8.55217C3.90886 8.87319 3.71646 9.14286 3.44304 9.14286H2.22785ZM20.5367 9.14286C20.2532 9.14286 20.0608 8.87319 20.0608 8.55217V7.21669C20.0608 6.85714 20.2532 6.60032 20.5367 6.60032H21.7418C22.0354 6.60032 22.2278 6.85714 22.2278 7.21669V8.55217C22.2278 8.87319 22.0253 9.14286 21.7418 9.14286H20.5367ZM2.22785 13.2648C1.9443 13.2648 1.7519 13.008 1.7519 12.6742V11.3515C1.7519 10.9791 1.9443 10.7352 2.22785 10.7352H3.44304C3.71646 10.7352 3.90886 10.9791 3.90886 11.3515V12.6742C3.90886 13.008 3.71646 13.2648 3.44304 13.2648H2.22785ZM20.5367 13.2648C20.2532 13.2648 20.0608 13.008 20.0608 12.6742V11.3515C20.0608 10.9791 20.2532 10.7352 20.5367 10.7352H21.7418C22.0354 10.7352 22.2278 10.9791 22.2278 11.3515V12.6742C22.2278 13.008 22.0253 13.2648 21.7418 13.2648H20.5367ZM5.99494 21.6116C5.67089 21.6116 5.46835 21.3547 5.46835 20.9567V13.8684C5.46835 13.4703 5.67089 13.2135 5.99494 13.2135H17.9848C18.2987 13.2135 18.5013 13.4703 18.5013 13.8684V20.9567C18.5013 21.3547 18.2987 21.6116 17.9848 21.6116H5.99494ZM2.22785 17.4254C1.9443 17.4254 1.7519 17.1429 1.7519 16.8218V15.4864C1.7519 15.1268 1.9443 14.87 2.22785 14.87H3.44304C3.71646 14.87 3.90886 15.1268 3.90886 15.4864V16.8218C3.90886 17.1429 3.71646 17.4254 3.44304 17.4254H2.22785ZM20.5367 17.4254C20.2532 17.4254 20.0608 17.1429 20.0608 16.8218V15.4864C20.0608 15.1268 20.2532 14.87 20.5367 14.87H21.7418C22.0354 14.87 22.2278 15.1268 22.2278 15.4864V16.8218C22.2278 17.1429 22.0253 17.4254 21.7418 17.4254H20.5367ZM2.25823 21.6116C1.95443 21.6116 1.7519 21.3547 1.7519 20.9695V19.6597C1.7519 19.3002 1.9443 19.0562 2.22785 19.0562H3.44304C3.71646 19.0562 3.90886 19.3002 3.90886 19.6597V21.008C3.90886 21.3676 3.71646 21.6116 3.44304 21.6116H2.25823ZM20.5367 21.6116C20.2532 21.6116 20.0608 21.3676 20.0608 21.008V19.6597C20.0608 19.3002 20.2532 19.0562 20.5367 19.0562H21.7418C22.0253 19.0562 22.2278 19.3002 22.2278 19.6597V20.9695C22.2278 21.3547 22.0152 21.6116 21.7114 21.6116H20.5367Z" fill="#CCCCCC"/>
</svg>
