<svg width="24" height="24" viewBox="0 0 24 24" fill="none" xmlns="http://www.w3.org/2000/svg">
<path d="M13.0534 0C7.0719 0 2.12792 5.43659 2.12792 12C2.12792 12.2323 2.13851 12.453 2.1491 12.6738C2.6255 12.5111 3.13366 12.4182 3.6524 12.4182C6.15086 12.4182 8.25761 14.4046 8.71284 17.0068C9.91972 16.2982 11.423 15.9148 13.064 15.9148C15.8906 15.9148 18.3361 17.0416 19.5536 19.0629C17.9444 20.9564 15.4354 22.0368 13.064 22.0368C11.4019 22.0368 9.6974 21.5024 8.27878 20.5382C8.01412 21.1423 7.66475 21.6767 7.2307 22.1181C8.92457 23.3146 10.9255 24 13.064 24C19.0454 24 24 18.575 24 12C24 5.43659 19.0454 0 13.0534 0ZM13.064 13.9051C10.989 13.8935 9.3798 11.9884 9.3798 9.47919C9.36921 7.10939 11.0101 5.13456 13.064 5.13456C15.1178 5.13456 16.7481 7.10939 16.7481 9.47919C16.7481 11.9884 15.1389 13.9284 13.064 13.9051ZM3.6524 22.0949C5.65329 22.0949 7.31539 20.2827 7.31539 18.0755C7.31539 15.88 5.65329 14.0678 3.6524 14.0678C1.65152 14.0678 0 15.88 0 18.0755C0 20.2827 1.65152 22.0949 3.6524 22.0949Z" fill="#CCCCCC"/>
</svg>
