<svg width="44" height="44" viewBox="0 0 44 44" fill="none" xmlns="http://www.w3.org/2000/svg">
<g clip-path="url(#clip0_1750_73)">
<path d="M27.5 14.6666H27.5183" stroke="#2C3E50" stroke-width="2.75" stroke-linecap="round" stroke-linejoin="round"/>
<path d="M5.5 11C5.5 9.54131 6.07946 8.14236 7.11091 7.11091C8.14236 6.07946 9.54131 5.5 11 5.5H33C34.4587 5.5 35.8576 6.07946 36.8891 7.11091C37.9205 8.14236 38.5 9.54131 38.5 11V33C38.5 34.4587 37.9205 35.8576 36.8891 36.8891C35.8576 37.9205 34.4587 38.5 33 38.5H11C9.54131 38.5 8.14236 37.9205 7.11091 36.8891C6.07946 35.8576 5.5 34.4587 5.5 33V11Z" stroke="#2C3E50" stroke-width="2.75" stroke-linecap="round" stroke-linejoin="round"/>
<path d="M5.5 29.3334L14.6667 20.1667C16.368 18.5296 18.4653 18.5296 20.1667 20.1667L29.3333 29.3334" stroke="#2C3E50" stroke-width="2.75" stroke-linecap="round" stroke-linejoin="round"/>
<path d="M25.6665 25.6667L27.4998 23.8333C29.2012 22.1962 31.2985 22.1962 32.9998 23.8333L38.4998 29.3333" stroke="#2C3E50" stroke-width="2.75" stroke-linecap="round" stroke-linejoin="round"/>
</g>
<defs>
<clipPath id="clip0_1750_73">
<rect width="44" height="44" fill="white"/>
</clipPath>
</defs>
</svg>
