<svg width="9" height="9" viewBox="0 0 9 9" fill="none" xmlns="http://www.w3.org/2000/svg">
<path d="M4.86515 7.11921L4.8652 7.11924L6.76482 8.2346L6.33354 5.95775C6.33354 5.95774 6.33354 5.95773 6.33353 5.95772C6.28772 5.71591 6.36277 5.46014 6.54565 5.28277C6.54566 5.28276 6.54568 5.28275 6.54569 5.28274L8.19365 3.68429L5.98676 3.40987C5.98676 3.40987 5.98675 3.40987 5.98675 3.40987C5.72383 3.37718 5.51054 3.20549 5.4101 2.97713L4.50024 0.908609L3.59036 2.97719C3.59036 2.97719 3.59035 2.97719 3.59035 2.97719C3.48914 3.20729 3.27436 3.37732 3.01327 3.40979L4.86515 7.11921ZM4.86515 7.11921C4.63859 6.98622 4.36051 6.98736 4.13558 7.11938C4.13557 7.11938 4.13555 7.11939 4.13554 7.1194L2.23527 8.23459L2.66661 5.95793C2.66661 5.95793 2.66661 5.95792 2.66661 5.95792C2.71232 5.71665 2.63784 5.4605 2.45454 5.28273C2.45454 5.28273 2.45453 5.28273 2.45453 5.28272L0.806394 3.68428L3.01325 3.40979L4.86515 7.11921ZM1.71955 8.53724C1.71962 8.5372 1.71968 8.53716 1.71975 8.53712L1.71955 8.53724ZM8.73617 3.75175C8.73616 3.75175 8.73615 3.75175 8.73613 3.75175L8.73617 3.75175ZM8.57806 3.31144L8.57803 3.31147L8.57806 3.31144Z" stroke="#FF7A00" stroke-linecap="round" stroke-linejoin="round"/>
</svg>
