<svg width="20" height="14" viewBox="0 0 20 14" fill="none" xmlns="http://www.w3.org/2000/svg">
<path d="M15.8015 13.4678C16.0294 13.6958 16.3971 13.7105 16.6324 13.4678C16.875 13.2178 16.8603 12.8649 16.6324 12.637L4.15441 0.173724C3.92647 -0.054217 3.55147 -0.0615699 3.32353 0.173724C3.10294 0.394312 3.10294 0.776665 3.32353 0.997254L15.8015 13.4678ZM16.4926 11.2178C18.6397 9.77667 20 7.82814 20 6.96049C20 5.47519 15.9632 0.659018 10 0.659018C8.75 0.659018 7.58088 0.872254 6.52206 1.22519L8.53677 3.2399C8.99265 3.05608 9.48529 2.95314 10.0074 2.95314C12.2353 2.95314 14.0368 4.72519 14.0368 6.96784C14.0368 7.48255 13.9265 7.98255 13.7279 8.43108L16.4926 11.2178ZM10 13.2693C11.3456 13.2693 12.5956 13.0267 13.6985 12.6223L11.6691 10.5928C11.1691 10.8428 10.6029 10.9752 10.0074 10.9752C7.76471 10.9752 5.97794 9.14431 5.97059 6.96784C5.97059 6.35755 6.10294 5.78402 6.34559 5.27667L3.69118 2.60755C1.40441 4.07814 0 6.09284 0 6.96049C0 8.45314 4.11029 13.2693 10 13.2693ZM12.3529 6.81343C12.3529 5.52667 11.3235 4.4899 10.0294 4.4899C9.94853 4.4899 9.86765 4.49725 9.79412 4.50461L12.3382 7.04137C12.3456 6.97519 12.3529 6.89431 12.3529 6.81343ZM7.63971 6.84284C7.63971 8.12961 8.69853 9.16637 9.97794 9.16637C10.0662 9.16637 10.1471 9.15902 10.2279 9.15167L7.65441 6.57814C7.64706 6.66637 7.63971 6.75461 7.63971 6.84284Z" fill="#CCCCCC" fill-opacity="0.6"/>
</svg>
