<svg width="24" height="24" viewBox="0 0 24 24" fill="none" xmlns="http://www.w3.org/2000/svg">
<path d="M11.9929 24C12.2484 24 12.6316 23.9292 13.0006 23.7641C21.1614 20.0727 24 18.3627 24 14.0698V5.1656C24 3.75037 23.3471 3.24324 21.9137 2.73612C20.3525 2.18182 15.0444 0.648649 13.5115 0.212285C13.029 0.0825553 12.4897 0 11.9929 0C11.5103 0 10.9568 0.106143 10.4885 0.212285C8.95565 0.577887 3.64755 2.19361 2.08634 2.73612C0.652868 3.23145 0 3.75037 0 5.1656V14.0698C0 18.3627 2.83856 20.0491 10.9994 23.7641C11.3684 23.9292 11.7516 24 11.9929 24ZM11.9929 21.4998C11.7942 21.4998 11.5955 21.4408 11.1839 21.2285C4.71201 17.9499 2.69663 17.0654 2.69663 13.6334V5.543C2.69663 5.11843 2.79598 4.95332 3.19338 4.81179C5.29391 4.11597 9.36724 2.99558 11.2407 2.38231C11.5671 2.28796 11.7942 2.25258 11.9929 2.25258C12.2058 2.25258 12.4329 2.28796 12.7593 2.38231C14.6328 2.99558 18.6777 4.18673 20.7924 4.81179C21.204 4.94152 21.3034 5.11843 21.3034 5.543V13.6334C21.3034 17.0889 19.2028 18.0206 12.8161 21.2285C12.4045 21.4408 12.2058 21.4998 11.9929 21.4998ZM11.9929 13.315C12.7735 13.315 13.2277 12.9612 13.2419 12.2654L13.4548 6.59263C13.4831 5.9086 12.8587 5.40147 11.9787 5.40147C11.0988 5.40147 10.4885 5.89681 10.5169 6.58084L10.7156 12.2771C10.7439 12.9494 11.1981 13.315 11.9929 13.315ZM11.9929 17.2305C12.9154 17.2305 13.6677 16.688 13.6677 15.9332C13.6677 15.1902 12.9296 14.6359 11.9929 14.6359C11.0704 14.6359 10.3182 15.1902 10.3182 15.9332C10.3182 16.6762 11.0846 17.2305 11.9929 17.2305Z" fill="url(#paint0_linear_1119_521)"/>
<defs>
<linearGradient id="paint0_linear_1119_521" x1="0" y1="0" x2="24.5574" y2="0.584566" gradientUnits="userSpaceOnUse">
<stop stop-color="#E36FD7"/>
<stop offset="1" stop-color="#E5526C"/>
</linearGradient>
</defs>
</svg>
