<svg width="8" height="8" viewBox="0 0 8 8" fill="none" xmlns="http://www.w3.org/2000/svg">
<path d="M0.06559 3.26249C-0.0619203 3.13883 0.00734359 2.91529 0.179812 2.89384L2.6236 2.58988C2.6939 2.58114 2.75495 2.53485 2.7846 2.46744L3.81536 0.124053C3.8881 -0.0413297 4.1123 -0.0413615 4.18505 0.124021L5.2158 2.46739C5.24545 2.5348 5.30611 2.58121 5.3764 2.58995L7.82033 2.89384C7.9928 2.91529 8.06186 3.1389 7.93435 3.26255L6.1278 5.01482C6.07583 5.06522 6.05269 5.14023 6.06649 5.21304L6.54594 7.74421C6.57979 7.92284 6.3985 8.06125 6.24695 7.97229L4.09959 6.71148C4.03783 6.67522 3.96279 6.67539 3.90102 6.71165L1.75344 7.97197C1.60189 8.06093 1.42026 7.92283 1.45411 7.7442L1.93365 5.2132C1.94744 5.14039 1.92436 5.0652 1.87239 5.01481L0.06559 3.26249Z" fill="url(#paint0_linear_1086_309)"/>
<defs>
<linearGradient id="paint0_linear_1086_309" x1="0" y1="0" x2="8.18579" y2="0.194855" gradientUnits="userSpaceOnUse">
<stop stop-color="#6FE3E1"/>
<stop offset="1" stop-color="#5257E5"/>
</linearGradient>
</defs>
</svg>
