<svg width="20" height="20" viewBox="0 0 20 20" fill="none" xmlns="http://www.w3.org/2000/svg">
<path d="M0.163975 8.15622C-0.154801 7.84708 0.018359 7.28821 0.44953 7.2346L6.55901 6.47469C6.73474 6.45284 6.88738 6.33712 6.96149 6.16861L9.53839 0.310132C9.72025 -0.103324 10.2808 -0.103404 10.4626 0.310052L13.0395 6.16849C13.1136 6.33699 13.2653 6.45303 13.441 6.47488L19.5508 7.2346C19.982 7.28821 20.1547 7.84724 19.8359 8.15638L15.3195 12.5371C15.1896 12.663 15.1317 12.8506 15.1662 13.0326L16.3649 19.3605C16.4495 19.8071 15.9962 20.1531 15.6174 19.9307L10.249 16.7787C10.0946 16.6881 9.90697 16.6885 9.75255 16.7791L4.3836 19.9299C4.00472 20.1523 3.55066 19.8071 3.63528 19.3605L4.83411 13.033C4.8686 12.851 4.8109 12.663 4.68098 12.537L0.163975 8.15622Z" fill="#FF7A00"/>
</svg>
