<svg width="28" height="28" viewBox="0 0 28 28" fill="none" xmlns="http://www.w3.org/2000/svg">
<path d="M10.5 15.75L17.5 19.25M17.5 8.75L10.5 12.25M21 24.5C19.067 24.5 17.5 22.933 17.5 21C17.5 19.067 19.067 17.5 21 17.5C22.933 17.5 24.5 19.067 24.5 21C24.5 22.933 22.933 24.5 21 24.5ZM7 17.5C5.067 17.5 3.5 15.933 3.5 14C3.5 12.067 5.067 10.5 7 10.5C8.933 10.5 10.5 12.067 10.5 14C10.5 15.933 8.933 17.5 7 17.5ZM21 10.5C19.067 10.5 17.5 8.933 17.5 7C17.5 5.067 19.067 3.5 21 3.5C22.933 3.5 24.5 5.067 24.5 7C24.5 8.933 22.933 10.5 21 10.5Z" stroke="url(#paint0_linear_1105_282)" stroke-width="2" stroke-linecap="round" stroke-linejoin="round"/>
<defs>
<linearGradient id="paint0_linear_1105_282" x1="3.5" y1="3.5" x2="24.9877" y2="4.0115" gradientUnits="userSpaceOnUse">
<stop stop-color="#6FE3E1"/>
<stop offset="1" stop-color="#5257E5"/>
</linearGradient>
</defs>
</svg>
