<svg width="16" height="18" viewBox="0 0 16 18" fill="none" xmlns="http://www.w3.org/2000/svg">
<path d="M9.75 7.125V13.25M6.25 7.125V13.25M2.75 3.625V13.95C2.75 14.9301 2.75 15.4198 2.94074 15.7941C3.10852 16.1234 3.37604 16.3917 3.70532 16.5594C4.0793 16.75 4.56912 16.75 5.5473 16.75H10.4527C11.4309 16.75 11.92 16.75 12.294 16.5594C12.6233 16.3917 12.8917 16.1234 13.0594 15.7941C13.25 15.4202 13.25 14.9309 13.25 13.9527V3.625M2.75 3.625H4.5M2.75 3.625H1M4.5 3.625H11.5M4.5 3.625C4.5 2.8096 4.5 2.4021 4.63321 2.08051C4.81082 1.65171 5.15128 1.31083 5.58008 1.13321C5.90168 1 6.3096 1 7.125 1H8.875C9.6904 1 10.0981 1 10.4197 1.13321C10.8485 1.31083 11.1891 1.65171 11.3667 2.08051C11.4999 2.4021 11.5 2.8096 11.5 3.625M11.5 3.625H13.25M13.25 3.625H15" stroke="#FF0000" stroke-width="2" stroke-linecap="round" stroke-linejoin="round"/>
</svg>
