<svg width="24" height="24" viewBox="0 0 24 24" fill="none" xmlns="http://www.w3.org/2000/svg">
<path d="M22.9374 6.91464L13.6658 0.493183C12.6923 -0.16712 11.2707 -0.16712 10.2971 0.509691L1.05649 6.93115C0.191143 7.52542 -0.179719 8.49937 0.0829751 9.47332C0.392027 10.5793 1.45826 11.3387 2.74082 11.3387H4.05429C4.57968 11.3387 4.85783 11.6193 4.85783 11.7183V20.2198C4.85783 22.2997 6.83576 24 9.24637 24H14.7475C16.0919 24 17.3281 23.4883 18.178 22.5803C18.7961 21.9035 19.1515 21.0616 19.1515 20.2033V11.7183C19.1515 11.6193 19.4296 11.3387 19.955 11.3387H21.253C22.5356 11.3387 23.6018 10.5958 23.9109 9.47332C24.189 8.49937 23.8027 7.52542 22.9374 6.91464Z" fill="url(#paint0_linear_1460_70)"/>
<defs>
<linearGradient id="paint0_linear_1460_70" x1="0" y1="0" x2="24.5574" y2="0.584566" gradientUnits="userSpaceOnUse">
<stop stop-color="#6FE3E1"/>
<stop offset="1" stop-color="#5257E5"/>
</linearGradient>
</defs>
</svg>
